<svg width="164" height="24" viewBox="0 0 164 24" fill="none" xmlns="http://www.w3.org/2000/svg">
<path d="M0.000266314 23.5909V0.318153H9.18209C10.9472 0.318153 12.451 0.655275 13.6934 1.32952C14.9359 1.99618 15.8828 2.92421 16.5344 4.11361C17.1934 5.29543 17.523 6.65906 17.523 8.20452C17.523 9.74997 17.1897 11.1136 16.523 12.2954C15.8563 13.4772 14.8904 14.3977 13.6253 15.0568C12.3677 15.7159 10.845 16.0454 9.05709 16.0454H3.20481V12.1022H8.26163C9.2086 12.1022 9.9889 11.9394 10.6025 11.6136C11.2238 11.2803 11.6859 10.8219 11.9889 10.2386C12.2995 9.6477 12.4548 8.96967 12.4548 8.20452C12.4548 7.43179 12.2995 6.75755 11.9889 6.18179C11.6859 5.59846 11.2238 5.1477 10.6025 4.82952C9.98133 4.50376 9.19345 4.34088 8.2389 4.34088H4.92072V23.5909H0.000266314ZM20.719 23.5909V0.318153H29.9008C31.6584 0.318153 33.1584 0.632547 34.4008 1.26134C35.6508 1.88255 36.6016 2.76512 37.2531 3.90906C37.9122 5.04543 38.2417 6.38255 38.2417 7.92043C38.2417 9.46588 37.9084 10.7954 37.2417 11.9091C36.5751 13.0151 35.6092 13.8636 34.344 14.4545C33.0864 15.0454 31.5637 15.3409 29.7758 15.3409H23.6281V11.3863H28.9804C29.9198 11.3863 30.7001 11.2575 31.3213 11C31.9425 10.7424 32.4046 10.356 32.7077 9.84088C33.0183 9.32573 33.1736 8.68558 33.1736 7.92043C33.1736 7.1477 33.0183 6.49618 32.7077 5.96588C32.4046 5.43558 31.9387 5.03406 31.3099 4.76134C30.6887 4.48103 29.9046 4.34088 28.9577 4.34088H25.6395V23.5909H20.719ZM33.2872 13L39.0713 23.5909H33.6395L27.9804 13H33.2872ZM63.1054 11.9545C63.1054 14.4924 62.6243 16.6515 61.6622 18.4318C60.7077 20.2121 59.4046 21.5719 57.7531 22.5113C56.1092 23.4432 54.2607 23.9091 52.2077 23.9091C50.1395 23.9091 48.2834 23.4394 46.6395 22.5C44.9955 21.5606 43.6963 20.2007 42.7417 18.4204C41.7872 16.6401 41.3099 14.4848 41.3099 11.9545C41.3099 9.41664 41.7872 7.25755 42.7417 5.47725C43.6963 3.69694 44.9955 2.34088 46.6395 1.40906C48.2834 0.469669 50.1395 -2.86102e-05 52.2077 -2.86102e-05C54.2607 -2.86102e-05 56.1092 0.469669 57.7531 1.40906C59.4046 2.34088 60.7077 3.69694 61.6622 5.47725C62.6243 7.25755 63.1054 9.41664 63.1054 11.9545ZM58.1167 11.9545C58.1167 10.3106 57.8705 8.92421 57.3781 7.79543C56.8933 6.66664 56.2077 5.81058 55.3213 5.22725C54.4349 4.64391 53.397 4.35225 52.2077 4.35225C51.0183 4.35225 49.9804 4.64391 49.094 5.22725C48.2077 5.81058 47.5183 6.66664 47.0258 7.79543C46.541 8.92421 46.2986 10.3106 46.2986 11.9545C46.2986 13.5985 46.541 14.9848 47.0258 16.1136C47.5183 17.2424 48.2077 18.0985 49.094 18.6818C49.9804 19.2651 51.0183 19.5568 52.2077 19.5568C53.397 19.5568 54.4349 19.2651 55.3213 18.6818C56.2077 18.0985 56.8933 17.2424 57.3781 16.1136C57.8705 14.9848 58.1167 13.5985 58.1167 11.9545ZM77.5344 10.0341V13.875H66.9207V10.0341H77.5344ZM90.0003 23.5909H81.7503V0.318153H90.0684C92.4094 0.318153 94.4245 0.784063 96.1139 1.71588C97.8033 2.64012 99.1025 3.96967 100.012 5.70452C100.928 7.43937 101.387 9.51512 101.387 11.9318C101.387 14.356 100.928 16.4394 100.012 18.1818C99.1025 19.9242 97.7957 21.2613 96.0912 22.1932C94.3942 23.125 92.3639 23.5909 90.0003 23.5909ZM86.6707 19.375H89.7957C91.2503 19.375 92.4738 19.1174 93.4662 18.6022C94.4662 18.0795 95.2162 17.2727 95.7162 16.1818C96.2238 15.0833 96.4775 13.6666 96.4775 11.9318C96.4775 10.2121 96.2238 8.80679 95.7162 7.71588C95.2162 6.62497 94.47 5.82194 93.4775 5.30679C92.4851 4.79164 91.2616 4.53406 89.8071 4.53406H86.6707V19.375ZM105.032 23.5909V0.318153H120.713V4.37497H109.952V9.92043H119.907V13.9772H109.952V19.5341H120.759V23.5909H105.032ZM128.637 23.5909H123.364L131.398 0.318153H137.739L145.762 23.5909H140.489L134.659 5.63634H134.478L128.637 23.5909ZM128.307 14.4432H140.762V18.2841H128.307V14.4432ZM148.563 23.5909V0.318153H153.483V19.5341H163.46V23.5909H148.563Z" fill="#2C2D2E"/>
</svg>
