<svg width="164" height="24" viewBox="0 0 164 24" fill="none" xmlns="http://www.w3.org/2000/svg">
<path d="M0.000266314 23.5908V0.318092H9.18209C10.9472 0.318092 12.451 0.655214 13.6934 1.32946C14.9359 1.99612 15.8828 2.92415 16.5344 4.11355C17.1934 5.29537 17.523 6.659 17.523 8.20446C17.523 9.74991 17.1897 11.1135 16.523 12.2954C15.8563 13.4772 14.8904 14.3976 13.6253 15.0567C12.3677 15.7158 10.845 16.0454 9.05709 16.0454H3.20481V12.1022H8.26163C9.2086 12.1022 9.9889 11.9393 10.6025 11.6135C11.2238 11.2802 11.6859 10.8219 11.9889 10.2385C12.2995 9.64764 12.4548 8.96961 12.4548 8.20446C12.4548 7.43173 12.2995 6.75749 11.9889 6.18173C11.6859 5.5984 11.2238 5.14764 10.6025 4.82946C9.98133 4.5037 9.19345 4.34082 8.2389 4.34082H4.92072V23.5908H0.000266314ZM20.719 23.5908V0.318092H29.9008C31.6584 0.318092 33.1584 0.632486 34.4008 1.26127C35.6508 1.88249 36.6016 2.76506 37.2531 3.909C37.9122 5.04537 38.2417 6.38249 38.2417 7.92037C38.2417 9.46582 37.9084 10.7954 37.2417 11.909C36.5751 13.0151 35.6092 13.8635 34.344 14.4545C33.0864 15.0454 31.5637 15.3408 29.7758 15.3408H23.6281V11.3863H28.9804C29.9198 11.3863 30.7001 11.2575 31.3213 10.9999C31.9425 10.7423 32.4046 10.356 32.7077 9.84082C33.0183 9.32567 33.1736 8.68552 33.1736 7.92037C33.1736 7.14764 33.0183 6.49612 32.7077 5.96582C32.4046 5.43552 31.9387 5.034 31.3099 4.76127C30.6887 4.48097 29.9046 4.34082 28.9577 4.34082H25.6395V23.5908H20.719ZM33.2872 12.9999L39.0713 23.5908H33.6395L27.9804 12.9999H33.2872ZM63.1054 11.9545C63.1054 14.4923 62.6243 16.6514 61.6622 18.4317C60.7077 20.212 59.4046 21.5719 57.7531 22.5113C56.1092 23.4431 54.2607 23.909 52.2077 23.909C50.1395 23.909 48.2834 23.4393 46.6395 22.4999C44.9955 21.5605 43.6963 20.2007 42.7417 18.4204C41.7872 16.6401 41.3099 14.4848 41.3099 11.9545C41.3099 9.41658 41.7872 7.25749 42.7417 5.47718C43.6963 3.69688 44.9955 2.34082 46.6395 1.409C48.2834 0.469608 50.1395 -8.96454e-05 52.2077 -8.96454e-05C54.2607 -8.96454e-05 56.1092 0.469608 57.7531 1.409C59.4046 2.34082 60.7077 3.69688 61.6622 5.47718C62.6243 7.25749 63.1054 9.41658 63.1054 11.9545ZM58.1167 11.9545C58.1167 10.3105 57.8705 8.92415 57.3781 7.79537C56.8933 6.66658 56.2077 5.81052 55.3213 5.22718C54.4349 4.64385 53.397 4.35218 52.2077 4.35218C51.0183 4.35218 49.9804 4.64385 49.094 5.22718C48.2077 5.81052 47.5183 6.66658 47.0258 7.79537C46.541 8.92415 46.2986 10.3105 46.2986 11.9545C46.2986 13.5984 46.541 14.9848 47.0258 16.1135C47.5183 17.2423 48.2077 18.0984 49.094 18.6817C49.9804 19.2651 51.0183 19.5567 52.2077 19.5567C53.397 19.5567 54.4349 19.2651 55.3213 18.6817C56.2077 18.0984 56.8933 17.2423 57.3781 16.1135C57.8705 14.9848 58.1167 13.5984 58.1167 11.9545ZM77.5344 10.034V13.8749H66.9207V10.034H77.5344ZM90.0003 23.5908H81.7503V0.318092H90.0684C92.4094 0.318092 94.4245 0.784002 96.1139 1.71582C97.8033 2.64006 99.1025 3.96961 100.012 5.70446C100.928 7.4393 101.387 9.51506 101.387 11.9317C101.387 14.356 100.928 16.4393 100.012 18.1817C99.1025 19.9242 97.7957 21.2613 96.0912 22.1931C94.3942 23.1249 92.3639 23.5908 90.0003 23.5908ZM86.6707 19.3749H89.7957C91.2503 19.3749 92.4738 19.1173 93.4662 18.6022C94.4662 18.0795 95.2162 17.2726 95.7162 16.1817C96.2238 15.0832 96.4775 13.6666 96.4775 11.9317C96.4775 10.212 96.2238 8.80673 95.7162 7.71582C95.2162 6.62491 94.47 5.82188 93.4775 5.30673C92.4851 4.79158 91.2616 4.534 89.8071 4.534H86.6707V19.3749ZM105.032 23.5908V0.318092H120.713V4.37491H109.952V9.92037H119.907V13.9772H109.952V19.534H120.759V23.5908H105.032ZM128.637 23.5908H123.364L131.398 0.318092H137.739L145.762 23.5908H140.489L134.659 5.63627H134.478L128.637 23.5908ZM128.307 14.4431H140.762V18.284H128.307V14.4431ZM148.563 23.5908V0.318092H153.483V19.534H163.46V23.5908H148.563Z" fill="#919399"/>
</svg>
